<?xml version="1.0" encoding="utf-8"?>
<!-- Generator: Adobe Illustrator 26.0.3, SVG Export Plug-In . SVG Version: 6.00 Build 0)  -->
<svg version="1.1" xmlns="http://www.w3.org/2000/svg" xmlns:xlink="http://www.w3.org/1999/xlink" x="0px" y="0px"
	 viewBox="0 0 217.9438324 162.3397827" style="enable-background:new 0 0 217.9438324 162.3397827;" xml:space="preserve">
<style type="text/css">
	.st0{fill:#FFFFFF;}
</style>
<g id="shirt">
</g> 
<g id="art">
	<g>
		<path d="M62.7155762,30.6584473c-0.0107422,0.0108643-0.0262451,0.0263062-0.0375977,0.0376587
			c0.0009766-0.0004883,0.0015869-0.0010376,0.0024414-0.0015259C62.7751465,30.598877,62.7878418,30.5871582,62.7155762,30.6584473
			z"/>
		<path d="M125.6708984,102.7869873c-0.0964355,0.1435547-0.1794434,0.2866821-0.2512207,0.4302368
			c-0.0712891,0.1431274-0.1556396,0.2866821-0.2507324,0.4302368c-1.1000977-2.8197021-2.104126-5.6519165-3.0112305-8.4962769
			c-0.9085693-2.8435059-2.104126-5.5801392-3.5852051-8.2095337c-0.6696777-1.2423096-1.4338379-2.413269-2.2941895-3.5133057
			c-0.8605957-1.0987549-1.8408203-2.1027832-2.9394531-3.0112305c-0.0484619,0-0.1916504,0.0963745-0.4302979,0.2866821
			c-0.2399902,0.1915283-0.335083,0.2633057-0.2867432,0.215332l-1.7209473,1.2902832
			c-0.2866211,0.2399292-0.5733643,0.4661255-0.8603516,0.6814575c-0.2867432,0.2149048-0.5734863,0.4423218-0.8601074,0.6810303
			c0,0.0479736-0.0238037,0.0717773-0.0717773,0.0717773c-0.0471191,0.0479736-0.0952148,0.0713501-0.1435547,0.0713501
			c-0.0471191,0-0.0952148,0.0246582-0.1435547,0.0717773c-0.1431885,0.0964355-0.262085,0.1915283-0.3585205,0.2866821
			c1.3387451,1.1471558,2.5096436,2.4145508,3.5133057,3.800415c1.0040283,1.3866577,1.8879395,2.8563843,2.652832,4.4091797
			c0.7640381,1.5540161,1.4455566,3.1547852,2.043457,4.8039551c0.597168,1.6488037,1.1584473,3.2866821,1.6850586,4.9112549
			c0.4770508,1.3386841,0.9555664,2.6774292,1.4338379,4.0152588c0.477417,1.3387451,1.0273438,2.652832,1.6491699,3.9431152
			c0.1431885-0.0479736,0.262085-0.119751,0.3585205-0.2149048c0.0950928-0.0964355,0.1668701-0.1556396,0.2149658-0.1794434
			c0.0471191-0.0246582,0.0950928-0.0605469,0.1435547-0.1072388l1.720459-1.2907104l1.7209473-1.2907104v-0.0714111
			c0.3338623-0.09552,0.5488281-0.2624512,0.6451416-0.5020142h0.0717773
			c0.6689453-1.1471558,1.3378906-2.2943115,2.0076904-3.4414673c0.6689453-1.1471558,1.3374023-2.2943115,2.0075684-3.4414673
			c0.1431885,0.2866821,0.2867432,0.5733643,0.4301758,0.8600464c0.1433105,0.2871094,0.262207,0.5737915,0.3586426,0.8604736
			c0.5252686,1.1004028,1.0268555,2.2116699,1.5056152,3.3342285c0.4768066,1.1234131,0.9317627,2.2584229,1.3620605,3.4056396
			c0.0950928-0.0951538,0.215332-0.1907349,0.3583984-0.2867432c0.0471191-0.0471191,0.0955811-0.0717163,0.1435547-0.0717163
			c0.0471191,0,0.0952148-0.0238037,0.1435547-0.0717773c0.0467529,0,0.0712891-0.0233765,0.0712891-0.0717773l1.7209473-1.2907715
			l1.7209473-1.2902832c-0.0483398,0,0.0714111-0.0951538,0.3585205-0.2866821
			c0.1431885-0.0955811,0.262085-0.1906738,0.3585205-0.2871094c-0.717041-1.8640747-1.4822998-3.6922607-2.2944336-5.4849854
			c-0.8132324-1.7922974-1.6491699-3.5725098-2.5095215-5.3414917c-1.0036621-2.0543823-2.0435791-4.0745239-3.1188965-6.0583496
			c-1.0754395-1.9830322-2.1633301-3.9794312-3.262207-5.9870605c-0.5266113-0.9552002-1.052002-1.9108276-1.5773926-2.8676758
			c-0.5266113-0.9556274-1.052002-1.9358521-1.5773926-2.9395142c-0.4785156,0.3831177-0.8729248,0.6810303-1.1829834,0.8959961
			c-0.3114014,0.215332-0.5985107,0.4189453-0.8604736,0.6096802c-0.2633057,0.1915283-0.4189453,0.3112793-0.4660645,0.3584595
			c-0.2867432,0.239502-0.5734863,0.454834-0.8601074,0.6451416c-0.2871094,0.1915283-0.5505371,0.4068604-0.7888184,0.6451416
			c-0.0483398,0.0484009-0.0963135,0.0717773-0.1434326,0.0717773c-0.0479736,0.0484009-0.0838623,0.0717773-0.107666,0.0717773
			c-0.0246582,0-0.0605469,0.0245972-0.107666,0.0717773c-0.1431885,0.0963745-0.2629395,0.1915283-0.3585205,0.2866821
			c1.5773926,3.0112305,3.1787109,5.9869995,4.8039551,8.9265137c1.6246338,2.9394531,3.2020264,5.9152222,4.7321777,8.9265137
			c-0.6217041,0.9564209-1.2188721,1.9120483-1.7927246,2.8676758
			C126.8181152,100.8757324,126.2442627,101.8313599,125.6708984,102.7869873z"/>
		<path d="M211.1325684,98.2701416c-2.1990967-3.9188843-4.4216309-7.838623-6.6679688-11.758728
			c-1.3867188-2.5810547-2.8084717-5.1140747-4.2661133-7.5999146c-1.4584961-2.4850464-2.9519043-4.9708862-4.480957-7.4567871
			c-0.4786377,0.335083-0.8851318,0.6217651-1.2189941,0.8604736c-0.1435547,0.0963745-0.2990723,0.2036743-0.4660645,0.3225708
			c-0.1682129,0.119751-0.2991943,0.227417-0.3942871,0.3225708c-0.1431885,0.1435547-0.2634277,0.2399902-0.3585205,0.2866821
			c-0.0479736,0.0484009-0.2037354,0.1682129-0.4661865,0.3588867c-0.2633057,0.1915283-0.5373535,0.3943481-0.8244629,0.6092529
			c-0.2867432,0.2149048-0.6699219,0.5141602-1.1472168,0.8963623c1.81604,3.0112915,3.5961914,6.022522,5.3417969,9.0337524
			c1.7438965,3.0112915,3.477417,6.0475464,5.197998,9.105957c-2.6293945-2.7717285-5.2822266-5.4962769-7.958374-8.1737061
			c-2.6773682-2.6765747-5.5689697-5.1624146-8.6756592-7.4567261c-0.4685059-0.3515625-0.9504395-0.6895752-1.4353027-1.0253296
			c0.567627-0.5709839,1.1181641-1.119751,1.3381348-1.0114136c-0.7961426-0.392334-1.6535645-0.7283936-2.5371094-1.0360107
			c-0.7915039-6.9943237-0.095459-15.3936768,2.3551025-22.0116577c-0.5161133,0.388916-1.0323486,0.7778931-1.5484619,1.1668091
			c-0.5494385,0.2780151-1.0812988,0.5655518-1.293457,0.9747925c-2.0396729,3.934021-3.2419434,8.3591309-6.1918945,11.6988525
			c-4.9022217,2.0258179-7.8254395-3.9883423-9.2416992-8.5040894c0.0568848,0.1812744-0.7144775,0.6288452-1.4682617,1.0777588
			c-0.6446533,0.3508911-1.2709961,0.7034912-1.3596191,0.9746704c-0.0164795,0.0333252-0.0222168,0.0633545-0.0141602,0.0891724
			c0.3621826,2.2609253,0.5294189,6.8790283-0.6413574,9.7473145c-2.8070068-0.074646-5.4980469-2.637207-7.6308594-4.1843262
			c-3.5407715-2.5685425-6.6320801-5.7169189-10.3309326-8.0703125c-0.1827393-0.1162109-0.793335,0.4506226-1.4060059,1.0317383
			c-0.6439209,0.5975952-1.2904053,1.2103271-1.4359131,1.1098633c2.1142578,1.4596558,4.0074463,3.2780762,5.697998,5.305603
			c-4.3056641,0.1350098-10.6477051,0.1818848-17.703125-0.2731323l-4.5168457-9.0341797
			c-0.4772949,0.3831177-0.8604736,0.6810303-1.1472168,0.8963623c-0.2866211,0.2149048-0.5612793,0.4190063-0.8244629,0.6092529
			c-0.262207,0.1915894-0.4177246,0.2871094-0.4661865,0.2871094c-0.2867432,0.239563-0.5733643,0.4657593-0.8599854,0.6810303
			c-0.2871094,0.2149658-0.5738525,0.4423828-0.8605957,0.6810913c-0.0471191,0.0484009-0.0950928,0.0717773-0.1435547,0.0717773
			c-0.0471191,0.0479736-0.0825195,0.0717773-0.1071777,0.0717773c-0.0238037,0-0.0596924,0.0245972-0.107666,0.0717773
			c-0.1435547,0.0959473-0.262085,0.1915283-0.3583984,0.2866821c0.3830566,0.8132935,0.7885742,1.6132812,1.2188721,2.4019775
			c0.4298096,0.7886963,0.8366699,1.5894775,1.2185059,2.4015503c-0.7169189-0.0951538-1.4338379-0.1669312-2.1507568-0.2149048
			c-0.7169189-0.0471802-1.4576416-0.0951538-2.2226562-0.1435547c-1.3671875-0.1242065-2.7353516-0.2853394-4.1032715-0.4290161
			c0.0319824-0.0233765,0.0675049-0.0494995,0.0991211-0.0726318c0.7828369-0.6038818,1.5495605-1.1757202,2.2565918-1.6832275
			c-1.5158691-2.0678101-3.0645752-4.1514282-4.6154785-6.2095337c-1.8140869-2.4060059-3.7043457-4.7980347-5.6175537-7.1091309
			l-0.1387939-0.1675415l-3.2666016-3.5029297l4.666748,0.6802979c0.0169678-0.0129395,3.4453125-2.4933472,3.4453125-2.4933472
			c-1.1044922-0.296875-2.210083-0.5351562-3.307373-0.7130737c-2.0039062-0.3227539-4.0795898-0.5535278-6.1674805-0.6850586
			l-0.6445312-0.0406494l-0.4064941-0.50177c-1.1368408-1.4024658-2.2719727-2.8053589-3.40625-4.2078247
			c-1.1362305-1.4017944-2.2712402-2.8043213-3.4060059-4.2071533c-2.0495605-2.5109863-4.1104736-5.0783691-6.1210938-7.6260376
			c-2.0394287-2.5828857-4.0328369-5.151001-5.9248047-7.6321411c-0.8763428-1.1447754-1.7490234-2.3431396-2.5930176-3.5594482
			c-0.809082-1.1634521-1.6555176-2.3251343-2.5148926-3.4515991c-0.8730469-1.1405029-1.7270508-2.3021851-2.5368652-3.4505615
			c-0.8173828-1.1566162-1.6083984-2.3937988-2.3520508-3.6769409c-0.3171387-0.4777222-0.5129395-0.8389282-0.6258545-1.15448
			L70.5187988,0l-4.1228027,3.0917969c-0.0933838,0.0956421-0.1940918,0.1808472-0.2943115,0.257019
			c0.3092041,0.8094482,0.6682129,1.6242676,1.0721436,2.4318848l0.0421143,0.092041
			c1.3270264,3.182373,2.6141357,6.4345093,3.8253174,9.6654663c1.2131348,3.2352295,2.3673096,6.5610352,3.4296875,9.8846436
			c1.5373535,4.479248,2.8331299,9.0828247,3.8416748,13.6536865c0.164917,0.828125,0.2484131,1.1929932,0.2900391,1.3583374
			l0.2841797,1.697937l-2.7838135,0.3009033l-0.8857422,1.7212524c0.9035645-0.0309448,1.8352051-0.0715332,2.7814941-0.121521
			l1.3745117-0.072937l0.1650391,1.3665771c0.2684326,2.2197876,0.4733887,4.5079346,0.6091309,6.8007812
			c0.0593262,1.3845825,0.0266113,2.7460938-0.0654297,4.0840454c-0.3289795-0.2858887-0.6516113-0.5651855-0.982666-0.8532715
			c-2.2949219-1.9599609-4.5654297-3.9072266-6.8115234-5.8427734c-2.2470703-1.9365234-4.3740234-4.0029297-6.3808594-6.2021484
			c-0.6699219-0.7646484-1.3154297-1.5419922-1.9365234-2.3300781c-0.6210938-0.7890625-1.1464844-1.6367188-1.5771484-2.5458984
			c-0.2392578-0.5732422-0.4658203-1.1464844-0.6806641-1.7207031c-0.2158203-0.5732422-0.3945312-1.1708984-0.5380859-1.7919922
			c-0.2871094-1.578125,0.1435547-2.9150391,1.2910156-4.015625c0.0805664-0.0805054,0.1486816-0.1489258,0.2124023-0.2133179
			c-0.2390137,0.1430664-0.4405518,0.2860718-0.6069336,0.4291382c-0.1679688,0.1425781-0.3476562,0.2861328-0.5380859,0.4296875
			c-0.5732422,0.3828125-1.1357422,0.7890625-1.6845703,1.21875c-0.5507812,0.4306641-1.0878906,0.8603516-1.6132812,1.2910156
			c-0.9091797,0.6210938-1.5058594,1.3144531-1.7929688,2.0791016c-0.1914062,0.6220703-0.2392578,1.3388672-0.1435547,2.1503906
			c0.0957031,0.6699219,0.2626953,1.3154297,0.5019531,1.9365234s0.5019531,1.2431641,0.7890625,1.8642578
			c0.4306641,0.9560547,0.9794922,1.8642578,1.6494141,2.7246094c0.6689453,0.8603516,1.3623047,1.6728516,2.0791016,2.4375
			c1.2421875,1.3388672,2.5205078,2.6171875,3.8359375,3.8359375c1.3134766,1.21875,2.6640625,2.4248047,4.0507812,3.6201172
			c-0.1914062,0-0.3828125-0.0478516-0.5732422-0.1425781c-1.578125-0.4306641-3.1669922-0.7294922-4.7685547-0.8964844
			c-1.6015625-0.1679688-3.2148438-0.1328125-4.8398438,0.1074219c-1.8632812,0.2382812-3.609375,0.6689453-5.2333984,1.2910156
			c0-0.3837891-0.0126953-0.7529297-0.0361328-1.1113281c-0.0244141-0.359375-0.0605469-0.7060547-0.1074219-1.0400391
			c-0.0966797-0.9560547-0.2636719-1.9003906-0.5019531-2.8320312c-0.2392578-0.9326172-0.5019531-1.875-0.7890625-2.8320312
			c-0.8125-2.4375-1.7451172-4.7919922-2.7958984-7.0625c-1.0517578-2.2695312-2.1757812-4.5527344-3.3701172-6.8476562
			c-1.2431641-2.4375-2.5449219-4.8388672-3.9072266-7.2050781s-2.7841797-4.6962891-4.265625-6.9902344
			c-1.0996094-1.8164062-2.2460938-3.6328125-3.4423828-5.4492188c-1.1933594-1.8164062-2.4609375-3.5849609-3.7998047-5.3056641
			c-0.3339844-0.4306641-0.6689453-0.8603516-1.0039062-1.2910156c-0.3330078-0.4296875-0.6923828-0.8603516-1.0751953-1.2900391
			c-0.5253906,0.3349609-0.9316406,0.609375-1.21875,0.8242188s-0.5488281,0.4296875-0.7890625,0.6455078
			c-0.2382812,0.2148438-0.3818359,0.3222656-0.4296875,0.3222656c-0.046875,0.0478516-0.203125,0.1679688-0.4658203,0.3583984
			c-0.2626953,0.1914062-0.5380859,0.4072266-0.8251953,0.6455078l-1.1464844,0.8603516
			c0.4775391,0.5263672,0.9208984,1.0517578,1.3261719,1.5771484c0.40625,0.5263672,0.8007812,1.0517578,1.1826172,1.5771484
			c0.6220703,0.8134766,1.21875,1.6259766,1.7929688,2.4384766c0.5732422,0.8125,1.1230469,1.625,1.6484375,2.4375
			c1.4345703,2.1503906,2.8320312,4.3261719,4.1943359,6.5244141c1.3623047,2.1992188,2.6894531,4.421875,3.9794922,6.6679688
			c1.3388672,2.390625,2.6171875,4.7802734,3.8359375,7.1699219c1.21875,2.390625,2.3769531,4.8515625,3.4775391,7.3847656
			c0.4775391,1.1005859,0.9199219,2.1865234,1.3261719,3.2626953c0.4052734,1.0751953,0.7998047,2.1630859,1.1835938,3.2617188
			c0.2382812,0.9072266,0.453125,1.8037109,0.6445312,2.6884766c0.1904297,0.8847656,0.3339844,1.8037109,0.4306641,2.7607422
			l0.0712891,0.1435547c-0.0478516,0-0.0712891,0.0234375-0.0712891,0.0712891
			c-0.0478516,0-0.0722656,0.1435547-0.0722656,0.4306641c0,0.1435547-0.0244141,0.2871094-0.0712891,0.4296875
			c-0.0478516,0.3828125-0.0966797,0.7412109-0.1435547,1.0761719c-0.0478516,0.3339844-0.0957031,0.6923828-0.1435547,1.0751953
			c-0.0478516,0.3339844-0.0957031,0.6689453-0.1425781,1.0039062c-0.0488281,0.3339844-0.0966797,0.6923828-0.1435547,1.0751953
			c-0.0488281,0.1435547-0.0722656,0.2871094-0.0722656,0.4306641v0.5019531
			c1.5771484-0.9570312,3.2021484-1.7460938,4.8759766-2.3662109c1.6728516-0.6220703,3.4169922-1.0517578,5.2333984-1.2910156
			c1.625-0.2392578,3.25-0.2753906,4.8759766-0.1074219c1.6240234,0.1669922,3.2021484,0.4658203,4.7324219,0.8964844
			c1.7675781,0.4765625,3.4765625,1.0869141,5.1259766,1.828125c1.6494141,0.7402344,3.2861328,1.5166016,4.9111328,2.3300781
			c1.1943359,0.6689453,2.3779297,1.3378906,3.5488281,2.0078125c1.1708984,0.6689453,2.3544922,1.3378906,3.5498047,2.0078125
			c0.0947266,0.0947266,0.1669922,0.1787109,0.2148438,0.2509766c0.046875,0.0712891,0.1191406,0.1542969,0.2148438,0.2509766
			c0,0.0947266,0.0957031,0.046875,0.2871094-0.1435547c0.5732422,0.3818359,1.1474609,0.7402344,1.7207031,1.0751953
			c0.5732422,0.3339844,1.1708984,0.6689453,1.7919922,1.0039062c0-0.1435547,0.0244141-0.2871094,0.0722656-0.4306641v-0.2861328
			c0-0.0488281,0.0234375-0.0966797,0.0712891-0.1435547c0.046875-0.3837891,0.0957031-0.7421875,0.1435547-1.0751953
			c0.046875-0.3349609,0.0957031-0.6943359,0.1435547-1.0761719c0.046875-0.3828125,0.0947266-0.7294922,0.1435547-1.0390625
			c0.046875-0.3115234,0.0947266-0.6582031,0.1435547-1.0400391v-0.2148438
			c0.046875-0.0488281,0.0947266-0.0839844,0.1425781-0.1074219c0.0478516-0.0253906,0.0957031-0.0605469,0.1435547-0.1074219
			l0.0722656-0.0722656c-0.0488281-0.0478516-0.0839844-0.0966797-0.1074219-0.1435547
			c-0.0253906-0.0478516-0.0839844-0.0957031-0.1796875-0.1435547v-0.1425781c-0.0478516,0-0.0712891-0.0126953-0.0712891-0.0361328
			c0-0.0244141-0.0253906-0.0361328-0.0722656-0.0361328c-0.6210938-0.7646484-1.2900391-1.4697266-2.0068359-2.1152344
			c-0.7177734-0.6445312-1.4345703-1.3027344-2.1513672-1.9716797c-1.1005859-0.9560547-2.1865234-1.8994141-3.2626953-2.8320312
			c-0.2905273-0.25177-0.5891113-0.5117798-0.8815918-0.7653809c1.3271484-0.2463989,3.0690918-0.5853271,3.2521973-0.6994629
			c0.791626-3.1662598-0.9179688-12.9406738-0.9179688-12.9406738s6.095459-0.2228394,12.4530029,0.190979
			c0.6395264,0.902832,4.4395752,5.7262573,6.7503662,8.6221924c2.2528076,2.8251343,4.5029297,5.7351074,6.6877441,8.6497192
			l1.2810059,1.7075806c-0.1000977-0.0117798-0.2001953-0.0195312-0.300293-0.0313721
			c-2.6281738-0.3100586-5.2575684-0.6564331-7.8864746-1.0394897c-0.2387695-0.0471802-0.4541016-0.0830688-0.6456299-0.107666
			c-0.1903076-0.0233765-0.3818359-0.0592651-0.5733643-0.1072388c-0.3823242-0.1907349-0.7766113-0.3463745-1.1831055-0.4661255
			c-0.4055176-0.1189575-0.8244629-0.2261963-1.2547607-0.3225708c-0.0472412,0-0.1668701,0.0963745-0.3585205,0.2866821
			c-0.0950928,0.0963745-0.2148438,0.1681519-0.3583984,0.2149048l-1.7209473,1.2907104l-1.7205811,1.2907104
			c-0.1435547,0.0963745-0.262085,0.1915283-0.3585205,0.2866821l-0.215332,0.2149048
			c-0.0466309,0.0484009-0.0950928,0.0717773-0.1430664,0.0717773h0.0717773l-0.1435547,0.1435547
			c0.2866211,0.0963745,0.5733643,0.1556396,0.8604736,0.1790161c0.2867432,0.0246582,0.5733643,0.0605469,0.8599854,0.107666
			c1.1472168,0.4782104,2.1992188,1.1359253,3.1549072,1.9717407c0.9569092,0.836731,1.8406982,1.7330933,2.65271,2.6887207
			c1.0041504,1.1951294,1.9250488,2.4378662,2.760498,3.7281494c0.8371582,1.2907104,1.6850586,2.5814209,2.5455322,3.8717041
			l1.1470947-0.8600464c0.2867432-0.2387085,0.5622559-0.4414673,0.824707-0.6096802
			c0.2629395-0.1669312,0.4189453-0.2745972,0.4656982-0.3225708c0.0484619,0,0.2039795-0.0951538,0.4661865-0.2866821
			c0.2631836-0.1906738,0.5378418-0.4056396,0.8244629-0.6455688c0.2867432-0.2382812,0.6697998-0.5487671,1.1472168-0.9318237
			c-0.8120117-1.1943359-1.6132812-2.4019775-2.4019775-3.6209106s-1.6365967-2.3773804-2.545166-3.477417
			c3.0113525,0.335144,6.0112305,0.6218262,8.998291,0.8604736c2.9874268,0.239563,5.9866943,0.4782715,8.9979248,0.7169189
			c0.670166,1.2907715,1.3153076,2.5935669,1.935791,3.9076538c0.6218262,1.3153076,1.2669678,2.6168823,1.935791,3.9075928
			c3.2984619,6.5963135,6.5246582,13.1925659,9.6794434,19.7888794c2.7246094,5.5922852,5.3773193,11.1849365,7.958252,16.7772217
			c0.0957031-0.0964355,0.215332-0.1915283,0.3588867-0.2866821c0.046875-0.0484009,0.0827637-0.0717773,0.1072998-0.0717773
			c0.0238037,0,0.0596924-0.0246582,0.107666-0.0717773c0.0472412,0,0.0950928-0.0246582,0.1435547-0.0717773l1.7205811-1.2902832
			l1.7209473-1.2907715c-0.0484619,0,0.0592041-0.0963745,0.3225098-0.2866821
			c0.262085-0.1906738,0.369751-0.2866821,0.3226318-0.2866821c-1.3867188-3.0116577-2.7850342-6.0228882-4.1943359-9.0341187
			c-1.4105225-3.0112915-2.8568115-6.022522-4.3377686-9.0341797c-1.5773926-3.2979736-3.1669922-6.5838013-4.7678223-9.8583374
			c-1.6019287-3.2733154-3.2390137-6.5604248-4.9116211-9.8587646c-0.1901855-0.4298096-0.3818359-0.8479614-0.5732422-1.2543945
			c-0.1907959-0.4056396-0.4057617-0.824585-0.6456299-1.2548218c8.4625244,0.7164307,15.0740967,0.3093262,18.1824951-0.2938843
			c1.8780518,2.7979126,3.4309082,5.8210449,4.6763916,8.793335c-0.0733643,0.0453491-0.1541748,0.0845337-0.2265625,0.1306152
			c-0.9986572,0.6360474-1.8469238,1.5077515-2.8419189,2.1415405c6.1677246-3.9287109,15.8215332-5.1569824,23.7687988-3.6010132
			l-1.5339355,1.5687256c0,0,3.2348633,3.0866089,6.3464355,7.7401123c-0.0427246-0.055603-0.0773926-0.1143188-0.1208496-0.1696777
			c-1.052002-1.2907104-2.2349854-2.4378662-3.5490723-3.4418945c-1.3153076-1.0036011-2.7366943-1.7677002-4.2661133-2.2943115
			c-2.8209229-0.9556274-5.640625-1.0269775-8.4603271-0.2149048c-0.0964355,0.0479736-0.2149658,0.1322632-0.3585205,0.2507935
			c-0.1435547,0.1201782-0.2633057,0.2040405-0.3583984,0.2512207l-1.7209473,1.2902832
			c-0.2867432,0.2399292-0.5734863,0.4661255-0.8601074,0.6814575c-0.2871094,0.2149048-0.5737305,0.4423218-0.8604736,0.6810303
			c-0.0950928,0.0479736-0.215332,0.1431274-0.3585205,0.2866821c-0.1435547,0.1435547-0.2619629,0.215332-0.3583984,0.215332
			c1.720459-0.477417,3.5133057-0.6455688,5.3774414-0.5020142c-0.6702881,0.5266113-1.3388672,1.0394897-2.0076904,1.5415039
			c-0.6697998,0.5020142-1.0036621,0.7774658-1.0036621,0.824585l-0.3585205,0.3584595
			c-0.2871094,0.239563-0.5737305,0.5266724-0.8603516,0.8604736c-0.2387695,0.2866821-0.4302979,0.5980225-0.5738525,0.9318848
			c-0.1431885,0.335083-0.262085,0.6935425-0.3585205,1.0753784c-0.2866211,1.1004028-0.3337402,2.2584229-0.1430664,3.477356
			c0.1915283,1.2189331,0.4782715,2.3786011,0.8601074,3.477356c1.0039062,2.7246094,2.3898926,5.2342529,4.1588135,7.5285645
			c0.8121338,1.1000366,1.7205811,2.1148682,2.7244873,3.0471191c1.0036621,0.932251,2.1262207,1.6850586,3.369751,2.2584839
			c1.0507812,0.5266113,2.1619873,0.824585,3.3338623,0.8963623c1.1708984,0.0717773,2.2822266-0.1548462,3.3342285-0.6810913
			c0.2866211-0.1434937,0.5253906-0.3104248,0.7169189-0.5020142c0.0467529,0,0.0714111-0.0237427,0.0714111-0.0717163
			c-0.0959473,0.0963745,0.1188965-0.0358887,0.6455078-0.3944092c0.5253906-0.3584595,1.1113281-0.776123,1.7563477-1.2548218
			c0.6456299-0.4769287,1.2189941-0.9071655,1.7209473-1.2902832c0.5020752-0.3822632,0.6811523-0.5491333,0.5375977-0.5020142
			l0.0717773-0.0717773c0.2386475-0.1903076,0.4539795-0.3818359,0.6455078-0.5733643
			c0.1903076-0.1907349,0.3585205-0.4056396,0.501709-0.6455688c0.3337402-0.4302368,0.5849609-0.8959351,0.7526855-1.3979492
			c0.1669922-0.5020142,0.2979736-1.0148926,0.3944092-1.5415039c0.2386475-1.2423096,0.262085-2.4850464,0.0717773-3.7282104
			c-0.1915283-1.2426758-0.4782715-2.4616699-0.8604736-3.6567993c-0.2070312-0.6977539-0.4555664-1.3787231-0.7319336-2.0484009
			c1.8369141,3.651001,3.9172363,7.1988525,5.8221436,10.8672485c0.9556885,1.7689209,1.8753662,3.5379028,2.760498,5.305542
			c0.8837891,1.7689819,1.7801514,3.5371094,2.6885986,5.3060303c0.477417-0.335083,0.8839111-0.6217651,1.2189941-0.8604736
			c0.2866211-0.2399292,0.5491943-0.442749,0.7886963-0.6096802c0.2386475-0.1677856,0.3822021-0.2754517,0.4302979-0.3225708
			l1.7209473-1.2902832c0.0950928-0.0955811,0.2148438-0.1907349,0.3583984-0.2871094
			c0.2382812-0.2382812,0.3583984-0.3338623,0.3583984-0.2866821c-1.4821777-2.914856-2.9643555-5.8189087-4.4454346-8.7111816
			c-1.4822998-2.8914795-2.987915-5.7717285-4.5169678-8.6398315c2.8198242,2.8209839,5.5568848,5.6765747,8.2097168,8.5680542
			c2.65271,2.8927002,5.3885498,5.748291,8.2091064,8.5680542c1.0511475,1.0999756,2.1027832,2.1507568,3.1547852,3.1547852
			c1.0507812,1.0036011,2.1512451,1.982605,3.2984619,2.9394531c0.0949707-0.0963745,0.2148438-0.1915283,0.3583984-0.2866821
			c0.0466309-0.0484009,0.0825195-0.0717773,0.1071777-0.0717773c0.0238037,0,0.0596924-0.0245972,0.107666-0.0717773
			c0.0471191,0,0.0952148-0.0245972,0.1435547-0.0717773l1.7205811-1.2902832
			c0.0471191-0.0484009,0.2027588-0.1681519,0.4661865-0.3588867c0.2619629-0.1915283,0.5378418-0.3939209,0.8244629-0.6092529
			c0.2867432-0.2149048,0.6452637-0.5140991,1.0754395-0.8963623
			C215.6015625,106.0848999,213.3305664,102.1898193,211.1325684,98.2701416z M83.513916,41.6813354l-0.1833496-1.0775757
			c-0.1928711-1.3514404-0.4248047-2.7258911-0.6889648-4.0848999c-0.2612305-1.3345947-0.5588379-2.6748657-0.8845215-3.9810791
			c-0.130127-0.5147095-0.2591553-1.0013428-0.3885498-1.4560547c-0.1348877-0.4683228-0.2706299-0.9769287-0.4129639-1.5491333
			l-1.8759766-7.5286255l4.5029297,6.3184204c0.3095703,0.4338379,0.6376953,0.8554688,0.9755859,1.2537231
			c0.3673096,0.4363403,0.7493896,0.8834839,1.1464844,1.3460693l0.0334473,0.0402222
			c1.0881348,1.3626099,2.1695557,2.7313232,3.2148438,4.0687866c1.0541992,1.3521729,2.1529541,2.7007446,3.2664795,4.0090942
			L94.125,41.279541L83.513916,41.6813354z M179.6572266,103.3603516c-0.0479736,0.3834839-0.1682129,0.7886963-0.3583984,1.2189331
			c-1.3387451,0.1435547-2.6293945-0.0713501-3.8718262-0.6451416c-1.2435303-0.5253906-2.3659668-1.2423096-3.3696289-2.1507568
			c-1.0041504-0.9076538-1.9125977-1.864502-2.7246094-2.868103c-1.9124756-2.2463379-3.3696289-4.7556152-4.3737793-7.5285645
			c-0.4301758-1.0987549-0.7648926-2.2584229-1.00354-3.4769287c-0.2399902-1.2189941-0.2399902-2.4257812,0-3.6209717
			c0.0950928-0.3822021,0.1903076-0.7169189,0.2867432-1.0040283c0.6203613,0,1.1942139,0.0964355,1.7209473,0.2871094
			c0.0466309,0,0.0950928-0.0238037,0.1430664-0.0717773l0.215332-0.215332
			c0.0952148-0.0951538,0.2148438-0.1902466,0.3583984-0.2866821c0.0952148-0.0471191,0.1904297-0.0951538,0.2867432-0.1431274
			c0.0950928-0.0471191,0.1903076-0.1188965,0.2867432-0.215332c0.0950928,0.0484009,0.1547852,0.0717773,0.1794434,0.0717773
			c0.0233154,0,0.0825195,0.0246582,0.1789551,0.0717773c1.6726074,0.6217651,3.1660156,1.4697266,4.4814453,2.545105
			c1.3139648,1.0754395,2.4970703,2.3068848,3.5490723,3.692749c1.5770264,2.1507568,2.7241211,4.4934692,3.4415283,7.026123
			c0.3818359,1.1955566,0.6326904,2.4144897,0.7528076,3.6567993
			C179.9552002,100.9475098,179.8959961,102.1664429,179.6572266,103.3603516z M157.763916,75.3968506
			c-0.0004883-0.0040894,0.0040283-0.0101929,0.0024414-0.013916c-0.7563477-1.855835-1.637085-3.7384033-2.6375732-5.5809937
			c2.0125732,1.4559326,4.1844482,2.7091064,6.5430908,1.6065674c-0.0844727,0.0838623-0.1645508,0.1748657-0.2558594,0.2471313
			c0.1480713-0.1112061,0.2961426-0.2224121,0.4440918-0.3336182c0.0256348-0.0133057,0.0507812-0.0213013,0.076416-0.0351562
			c0.6877441-0.3718262,1.2712402-0.8370972,1.7816162-1.361084c0.1639404-0.12323,0.3280029-0.24646,0.4919434-0.3696899
			c-0.0611572,0.0198975-0.1220703,0.0281372-0.1832275,0.045166c0.8920898-1.0304565,1.4951172-2.282959,1.8824463-3.6380615
			c0.8341064,1.3188477,1.8475342,2.418335,3.072876,2.9009399c1.9143066,0.7539673,3.7086182-0.1981201,5.2788086-1.3001709
			c-0.0032959,0.0028687-0.0061035,0.0060425-0.0093994,0.0089111c0.0181885-0.0137939,0.036499-0.0275879,0.0548096-0.0413818
			c0.3439941-0.2427368,0.6776123-0.4917603,0.9987793-0.7310181c0.1911621-0.142395,0.3679199-0.2915039,0.5490723-0.4386597
			c0.3952637-0.298645,0.7905273-0.5973511,1.185791-0.8959961c-0.1988525,0.1425171-0.3942871,0.2700806-0.5875244,0.3878784
			c1.3327637-1.1912842,2.3892822-2.5152588,3.2894287-3.9313965c-0.6717529,3.8816528-0.8999023,7.9391479-0.7084961,11.7495117
			C172.2280273,72.1550293,164.0024414,72.7490234,157.763916,75.3968506z"/>
		<path d="M216.4880371,131.9668579c-29.5422363-17.4743042-64.6296387-19.7835693-97.8690186-14.0725098
			c-7.9605713,1.3677979-15.8431396,3.180481-23.6199951,5.3600464c-5.1872559,1.4537354-10.5656738,3.5987549-16.0673828,2.8856812
			c-10.7734375-1.3962402-5.3278809-11.557251-0.4558105-18.2124634c0.6209717,0.18396,1.2590332,0.3040161,1.9182129,0.3444214
			c1.1708984,0.0717773,2.2822266-0.1548462,3.3342285-0.6810913c0.2867432-0.1434937,0.5253906-0.3104248,0.717041-0.5020142
			c0.0466309,0,0.0712891-0.0237427,0.0712891-0.0717163c-0.0959473,0.0963745,0.1188965-0.0358887,0.6455078-0.3944092
			c0.5253906-0.3584595,1.1113281-0.776123,1.7564697-1.2548218c0.6456299-0.4769287,1.2188721-0.9071655,1.7209473-1.2902832
			c0.5020752-0.3822632,0.6810303-0.5491333,0.5374756-0.5020142l0.0717773-0.0717773
			c0.2387695-0.1903076,0.4541016-0.3818359,0.6455078-0.5733643c0.1904297-0.1907349,0.3585205-0.4056396,0.501709-0.6455688
			c0.3337402-0.4302368,0.5849609-0.8959351,0.7526855-1.3979492c0.1669922-0.5020142,0.2980957-1.0148926,0.3944092-1.5415039
			c0.2386475-1.2423096,0.262085-2.4850464,0.0717773-3.7282104c-0.1166992-0.7572632-0.2808838-1.5026245-0.4683838-2.2422485
			c0.3920898,0.7025146,0.7767334,1.4121094,1.1494141,2.1345825c0.4052734,0.7886963,0.7995605,1.5895386,1.1831055,2.4020386
			c0.8120117,1.8168945,1.4091797,3.7047729,1.7922363,5.6640015c0.3818359,1.9605103,0.3818359,3.9435425,0,5.9511719
			l-1.6491699,1.2185059l-1.720459,1.2907104c-0.0484619,0.0471802-0.1435547,0.1435547-0.2871094,0.2866821
			c-0.1431885,0.1435547-0.2629395,0.2387085-0.3583984,0.2871094c1.815918-0.5266113,3.6679688-0.9447632,5.5566406-1.2548218
			c1.8874512-0.3117065,3.7878418-0.3943481,5.6999512-0.2512207c1.4338379,0.0955811,2.8322754,0.3584595,4.1943359,0.7886963
			c1.3625488,0.4302368,2.7124023,0.932251,4.0511475,1.5056152c0.4302979,0.1907349,0.8604736,0.3822632,1.2904053,0.5737915
			c0.4301758,0.1903076,0.8603516,0.4056396,1.2906494,0.6451416l0.7169189-0.5733643l1.7209473-1.2907104l1.720459-1.2907104
			c-0.0478516,0.0471802-0.0358887,0.0471802,0.0358887,0c0.0717773-0.0479736,0.1549072-0.119751,0.2512207-0.2149048
			l0.2149658-0.2149048c0.0472412-0.0484009,0.0950928-0.0717773,0.1435547-0.0717773
			c-0.1915283-1.387146-0.5020752-2.7124634-0.932251-3.9793701c-0.4301758-1.265686-1.052002-2.4487305-1.8640137-3.5491943
			c-0.6699219-0.9556274-1.3747559-1.8874512-2.1153564-2.7958984c-0.7415771-0.9076538-1.4226074-1.864502-2.0430908-2.868103
			c-0.670166-1.0991821-1.2314453-2.2338257-1.6850586-3.4056396c-0.454834-1.1709595-0.8725586-2.3773804-1.2548828-3.6209106
			c-0.0964355,0.0963745-0.2148438,0.1915283-0.3583984,0.2866821l-0.3585205,0.215332l-1.7205811,1.2907104l-1.7209473,1.2902832
			c0-0.0471191-0.1196289,0.0246582-0.3583984,0.215332c-0.2399902,0.1915283-0.3583984,0.3113403-0.3583984,0.3584595
			c0.4772949,1.5773926,1.0506592,3.107666,1.720459,4.5886841c0.6689453,1.4822388,1.5061035,2.9160767,2.5096436,4.3019409
			c0.5733643,0.8133545,1.1829834,1.6020508,1.8282471,2.3660889c0.6455078,0.7649536,1.2302246,1.6020508,1.7568359,2.5092773
			c-0.3830566-0.0951538-0.6456299-0.1669312-0.7888184-0.2149048c-1.6737061-0.3822632-3.3342285-0.5737915-4.9829102-0.5737915
			c-1.6491699,0-3.3105469,0.1681519-4.9830322,0.5020142l-1.0758057,0.2149048
			c0-0.0471802,0.0238037-0.0717773,0.0717773-0.0717773c0.8120117-2.0072632,1.1350098-4.0148926,0.9681396-6.022522
			c-0.1680908-2.0076294-0.6097412-3.9906616-1.3265381-5.9511108c-0.6697998-1.8157349-1.4822998-3.5846558-2.4379883-5.305603
			c-0.9562988-1.72052-1.9119873-3.4168701-2.8676758-5.0906982c-1.2906494-2.2943115-2.5700684-4.5999146-3.8358154-6.9188232
			c-1.2659912-2.317688-2.5689697-4.6245728-3.9075928-6.9188843l-0.4301758-0.6451416l-1.1472168,0.8604736
			c-0.2866211,0.239563-0.5612793,0.454834-0.824585,0.6451416c-0.262085,0.1915283-0.4177246,0.2866821-0.4661865,0.2866821
			c-0.0466309,0.0484009-0.2027588,0.1682129-0.4655762,0.3584595c-0.2625732,0.1915894-0.5379639,0.3943481-0.824707,0.6096802
			c-0.2871094,0.2149048-0.6455078,0.5141602-1.0756836,0.8959351c1.2434082,2.1040649,2.4503174,4.2193604,3.6208496,6.34552
			c0.342041,0.6210938,0.675293,1.2503052,1.0151367,1.8733521c-0.614624-0.6022949-1.2608643-1.170105-1.9470215-1.6943359
			c-1.3153076-1.0036011-2.7365723-1.7677002-4.2661133-2.2943115c-2.8208008-0.9556274-5.640625-1.0269775-8.4603271-0.2149048
			c-0.0963135,0.0479736-0.2149658,0.1322632-0.3585205,0.2507935c-0.1435547,0.1201782-0.2631836,0.2040405-0.3583984,0.2512207
			l-1.7209473,1.2902832c-0.2866211,0.2399292-0.5733643,0.4661255-0.8601074,0.6814575
			c-0.2871094,0.2149048-0.5737305,0.4423218-0.8603516,0.6810303c-0.0952148,0.0479736-0.215332,0.1431274-0.3585205,0.2866821
			c-0.1118164,0.1118164-0.2042236,0.1668091-0.2869873,0.1915283c-0.0915527-1.1364136-0.182251-2.2722168-0.286377-3.4180908
			c-0.0964355-0.8120728-0.1794434-1.600769-0.2507324-2.3657227c-0.0717773-0.7640381-0.1561279-1.5293579-0.2512207-2.2943115
			c-0.0964355,0.0960083-0.2149658,0.1915283-0.3585205,0.2866821l-0.3585205,0.2149048
			c-0.3349609,0.2399902-0.6450195,0.454895-0.9321289,0.6455688c-0.2867432,0.1915894-0.5734863,0.4064941-0.8601074,0.6451416
			c-0.2871094,0.239563-0.5625,0.454895-0.824707,0.6452026C61.5612793,77.0236206,61.2866211,77.2389526,61,77.4776611
			c-0.1435547,0.0959473-0.2634277,0.1915283-0.3585205,0.2866821c-0.0963135,0.0479736-0.1915283,0.119751-0.2867432,0.2149048
			l-0.0717773,0.0717773c0.3818359,2.772522,0.6689453,5.5567627,0.8605957,8.3527222
			c0.1901855,2.7963257,0.3818359,5.6047363,0.5732422,8.4248657c-0.239502-0.3822632-0.4422607-0.7407227-0.6091309-1.0758057
			c-0.1682129-0.3338013-0.3710938-0.6922607-0.6097412-1.0753784c-1.8168945-3.2979126-3.7528076-6.5357666-5.8074951-9.71521
			c-2.0544434-3.1781616-4.1818848-6.3204346-6.3811035-9.4281006c-2.6765137-3.7285767-5.4724121-7.3849487-8.3885498-10.9700317
			c-0.0471191,0-0.3104248,0.1915283-0.7886963,0.5737915c-0.4772949,0.3831177-1.0273438,0.8133545-1.6491699,1.2902832
			c-0.3261719,0.239624-0.6716309,0.5045166-1.0275879,0.7832642c-0.3825684-1.2279663-0.7370605-2.4671631-1.0510254-3.7227173
			c-0.239502-0.9076538-0.4301758-1.8394775-0.5733643-2.7963257c-0.1435547-0.9556274-0.21521-1.9112549-0.21521-2.8677368
			c0-0.6209106,0.0716553-1.2548218,0.21521-1.8999634c0.1431885-0.6455688,0.4302979-1.2068481,0.8601074-1.6850586
			c0.0955811-0.0951538,0.2027588-0.1794434,0.322998-0.2507935c0.1185303-0.0717773,0.2261963-0.1314697,0.3226318-0.1794434
			l-0.2871094,0.1435547c0.0471191-0.0955811-0.1916504,0.0604858-0.717041,0.4656982
			c-0.526123,0.4068604-1.123291,0.8604736-1.7922363,1.3624878c-0.6697998,0.5020142-1.2669678,0.9569092-1.7923584,1.3621216
			c-0.5266113,0.4068604-0.7174072,0.5625-0.5738525,0.4661255l-0.2148438,0.215271
			c-0.2871094,0.2867432-0.5019531,0.5980225-0.6455078,0.9318848c-0.239502,0.4302368-0.3944092,0.8850708-0.4658203,1.3624878
			c-0.0717773,0.4782104-0.107666,0.9564209-0.107666,1.4338379c0,1.3386841,0.1431885,2.6652832,0.4302979,3.9793701
			c0.2867432,1.3149414,0.6204834,2.6169434,1.00354,3.9076538c0.1904297,0.5733643,0.369873,1.1592407,0.5379639,1.7564087
			c0.1668701,0.5983887,0.369751,1.1830444,0.6092529,1.7564087c-0.2866211-0.1903076-0.5625-0.3693237-0.824585-0.5374756
			c-0.2633057-0.1669312-0.5374756-0.3463745-0.824585-0.5379028c-0.9564209-0.5733643-1.9713135-1.1112671-3.0471191-1.6132812
			c-1.0754395-0.5015869-2.1866455-0.8713379-3.3338623-1.1112671c-0.3830566-0.0951538-0.7774658-0.1310425-1.1829834-0.1072388
			c-0.4069824,0.0245972-0.8012695,0.1318359-1.1831055,0.3225708c-0.0964355,0.0479736-0.1915283,0.0838623-0.2866211,0.1072388
			c-0.0964355,0.0245972-0.1916504,0.0604858-0.2867432,0.107666c0,0.0484009-0.0125732,0.0717773-0.0358887,0.0717773
			c-0.0090332,0-0.0076904,0.0198975-0.0131836,0.0264282c-0.0479736,0.017395-0.2513428,0.1582642-0.6324463,0.4396973
			c-0.5499268,0.4064331-1.1716309,0.8604736-1.8640137,1.3620605c-0.6936035,0.5020142-1.2907715,0.9568481-1.7922363,1.3624878
			c-0.5020752,0.4064331-0.6577148,0.5620728-0.4661865,0.4656982c-0.3831787,0.2871094-0.6218262,0.5266724-0.7169189,0.7173462
			c-0.4301758,0.6697998-0.6218262,1.3386841-0.5737305,2.0072021c0.0471191,0.6702271,0.2512207,1.3153687,0.6096191,1.9359131
			c0.3583984,0.6217651,0.7999268,1.2076416,1.3261719,1.7568359c0.5253906,0.5499878,1.0040283,1.0161133,1.4343262,1.3979492
			c0.3337402,0.335083,0.668457,0.6455688,1.00354,0.932251c0.3338623,0.2866821,0.6922607,0.5733643,1.0753174,0.8604736
			c-0.3830566-0.0471802-0.7773438-0.0717773-1.1829834-0.0717773c-0.4063721,0-0.8007812,0-1.1829834,0
			c-1.6734619,0.0479736-3.3464355,0.1915283-5.019043,0.4302368c-1.6733398,0.239502-3.2978516,0.6697388-4.8752441,1.2902832
			c-0.6218262,0.2871094-1.3625488,0.5984497-2.2225342,0.932251c-0.0964355,0.0964355-0.215332,0.1556396-0.3585205,0.1790161
			c-0.1435547,0.0250854-0.2633057,0.0842896-0.3583984,0.1794434c-0.0964355,0.0964355-0.1916504,0.1556396-0.2871094,0.1794434
			c-0.0964355,0.0246582-0.1916504,0.0838623-0.2866211,0.1790161c-0.5734863,0.4302368-1.1347656,0.8604736-1.6850586,1.2907104
			c-0.5488281,0.4302368-1.1113281,0.836731-1.6848145,1.2189331c-0.2386475,0.1915894-0.4536133,0.3585205-0.6455078,0.5016479
			c-0.1901855,0.1435547-0.4051514,0.3117065-0.6451416,0.5020142c-0.0471191,0.0479736-0.0717773,0.0838623-0.0717773,0.107666
			c0,0.0245972-0.0233154,0.0604858-0.0714111,0.1072388c-0.1435547,0.1915283-0.1668701,0.4302368-0.0717773,0.7173462
			c0.0964355,0.5261841,0.3347168,1.0281982,0.717041,1.5056152c0.4781494,0.4302368,1.0281982,0.8007812,1.6491699,1.1112671
			c0.6218262,0.3112793,1.2185059,0.6092529,1.7922363,0.8959351c0.5253906,0.2399292,1.0507812,0.5020142,1.5773926,0.7886963
			c0.3818359,0.1915283,0.7282715,0.3834839,1.0395508,0.5737915c0.3105469,0.1915283,0.6330566,0.3831177,0.9681396,0.5733643
			c4.0147705,2.4379272,7.838501,4.9003906,11.4715576,7.3850098c2.3415527,1.6257935,4.6962891,3.2387085,7.0625,4.8398438
			c2.3660889,1.6020508,4.6958008,3.2374268,6.9906006,4.9112549c2.5325928,1.8640747,4.958374,3.8358154,7.2773438,5.9152222
			c2.317749,2.0790405,4.4564209,4.3612671,6.4168701,6.8471069c0.9075928,1.1943359,1.7568359,2.4378662,2.545166,3.7282104
			c0.7885742,1.2907104,1.4455566,2.6281128,1.9716797,4.0152588c0,0.0951538,0.0238037,0.1669312,0.0717773,0.2149048
			c0.2866211,1.3378906,0.5491943,2.652771,0.7886963,3.9434814c0.2386475,1.2907104,0.4536133,2.6047974,0.6451416,3.9435425
			c0,1.0036011-0.0712891,1.9358521-0.2148438,2.7963257c0.0471191-0.0484009,0.1188965-0.0963745,0.2148438-0.1435547
			c0.0955811-0.0479736,0.1547852-0.0838623,0.1794434-0.107666c0.0234375-0.0245972,0.0830078-0.0604858,0.1794434-0.1072388
			v0.0713501c0.0952148-0.0479736,0.2148438-0.119751,0.3583984-0.2149048
			c0.046875-0.0479736,0.0952148-0.0838623,0.1431885-0.107666c0.0472412-0.0245972,0.0950928-0.0604858,0.1435547-0.1072388
			l0.0717773-0.0717773l1.7205811-1.2907104l1.7209473-1.2907104c0.0952148-0.0960083,0.2148438-0.1915894,0.3583984-0.2866821
			c0.2387695-0.239563,0.3585205-0.335144,0.3585205-0.2866821c-0.0964355-0.4302368-0.1556396-0.8492432-0.1794434-1.2548828
			c-0.0246582-0.4064331-0.0838623-0.824585-0.1790771-1.2548218c0-2.0072021-0.2399902-3.8963013-0.7167969-5.6640015
			c-0.2399902-0.8604736-0.5267334-1.72052-0.8605957-2.5810547c-0.3830566-1.6257935-0.8012695-3.2511597-1.2547607-4.8757324
			c-0.4549561-1.6253662-0.9677734-3.2261353-1.541626-4.8035278c-1.1470947-3.4415283-2.5336914-6.7644653-4.1583252-9.9660034
			c-1.6253662-3.2019653-3.5133057-6.2616577-5.6640625-9.1777344c-2.1512451-2.8677368-4.6136475-5.4725342-7.3848877-7.8148193
			c-0.0484619,0-0.1916504,0.0963745-0.4302979,0.2866821c-0.2399902,0.1915283-0.335083,0.2633057-0.2867432,0.2149048
			l-1.7209473,1.2907104l-1.7209473,1.2907104l-0.7169189,0.5733643c2.7244873,2.2943726,5.1500244,4.8519897,7.27771,7.6716919
			c2.1262207,2.8209839,4.0028076,5.8076172,5.6281738,8.9624023c0.1435547,0.2866821,0.2746582,0.5612793,0.3942871,0.824585
			c0.1186523,0.262085,0.2509766,0.5379028,0.3944092,0.824585c-1.4338379-1.2907104-2.868042-2.5096436-4.3018799-3.6567993
			c-2.3422852-1.8156738-4.7321777-3.5599976-7.1696777-5.2338257c-2.4379883-1.6725464-4.9003906-3.3450928-7.3850098-5.0188599
			c-0.6218262-0.4302368-1.2436523-0.8604736-1.8641357-1.2907104c-0.6217041-0.4302368-1.2435303-0.8604736-1.864502-1.2903442
			c-0.9564209-0.6688843-1.9119873-1.3140869-2.8676758-1.9358521c-0.9569092-0.6209106-1.9124756-1.2427368-2.868042-1.864502
			c-0.956543-0.5733643-1.9121094-1.1346436-2.8677979-1.6846313c-0.9569092-0.5491943-1.9124756-1.1350708-2.868042-1.7568359
			c-0.5266113-0.3338623-1.064209-0.6205444-1.6132812-0.8600464c-0.5500488-0.2387085-1.0875244-0.477417-1.6132812-0.7173462
			c-0.3830566-0.2382812-0.7888184-0.4769897-1.2185059-0.7169189c-0.4302979-0.2387085-0.8134766-0.5253906-1.1472168-0.8604736
			c-0.1916504-0.2866821-0.3117676-0.5016479-0.3583984-0.6452026c0.668457-0.2386475,1.3620605-0.4302368,2.0788574-0.5733643
			c0.717041-0.1435547,1.4338379-0.2624512,2.1512451-0.3584595c1.8156738-0.2387085,3.6083984-0.3338013,5.3773193-0.2871094
			c1.7677002,0.0484009,3.5366211,0.1915894,5.3056641,0.4302368c3.4885254,0.5266724,6.9300537,1.387146,10.3244629,2.5814819
			c2.5809326,1.0515747,4.9941406,2.2705078,7.2414551,3.6563721c0.8603516,0.5266113,1.708374,1.0394897,2.5454102,1.5415039
			c0.8354492,0.5020142,1.6846924,1.0161133,2.545166,1.5415039c0.3823242,0.2399902,0.7528076,0.4782715,1.1113281,0.7169189
			c0.3583984,0.2399902,0.7281494,0.4786377,1.1113281,0.7169189c0.2385254,0.0964355,0.4772949,0.215332,0.7172852,0.3585205
			c0.2382812,0.1434937,0.4769287,0.2633057,0.7169189,0.3584595c0,0.0484009,0.0358887,0.0484009,0.1072998,0
			c0.0717773-0.0467529,0.1547852-0.1185303,0.2512207-0.2149658c0.3337402-0.2386475,0.7526855-0.5487061,1.2547607-0.932251
			c0.5015869-0.3817749,0.7762451-0.5967407,0.8240967-0.6451416l1.7209473-1.2907104
			c0-0.0466919,0.0234375-0.0713501,0.0717773-0.0713501c0.0472412,0,0.0952148-0.0238037,0.1431885-0.0717773
			c0.0955811-0.0471191,0.215332-0.1435547,0.3585205-0.2866821l0.1435547-0.1435547
			c-0.3830566-0.4302368-0.824707-0.8120728-1.3261719-1.1471558c-0.5020752-0.3338623-1.0161133-0.6451416-1.5415039-0.932251
			c-0.8134766-0.5253906-1.6491699-1.0148926-2.5097656-1.4697266c-0.8603516-0.4536133-1.7209473-0.9197388-2.5810547-1.3979492
			c-2.151123-1.1943359-4.2906494-2.3773804-6.4172363-3.5491943c-2.1274414-1.1705322-4.2421875-2.4019775-6.3449707-3.6922607
			c-0.9569092-0.5737915-1.9125977-1.1830444-2.8681641-1.8286133c-0.956543-0.6451416-1.8886719-1.3261719-2.7963867-2.0431519
			c-0.6696777-0.5257568-1.3261719-1.0991211-1.9713135-1.7209473c-0.6456299-0.6204834-1.2314453-1.3140869-1.7568359-2.0794067
			c-0.4781494-0.6685181-0.7886963-1.2902832-0.9317627-1.8640747c0.668457,0.1435547,1.1938477,0.3117065,1.5769043,0.5020142
			c1.1943359,0.4782104,2.3303223,1.0394897,3.4060059,1.6850586c1.0754395,0.6451416,2.1621094,1.3261719,3.262085,2.0430908
			c0.8121338,0.5737915,1.6132812,1.159729,2.4019775,1.756897c0.7886963,0.5979614,1.588623,1.2310181,2.4019775,1.8999634
			c0.5253906,0.4782104,1.0507812,0.9443359,1.5773926,1.3979492c0.5253906,0.454834,1.0507812,0.9209595,1.5775146,1.3983765
			c0.5252686-0.3338623,0.9317627-0.6096802,1.2185059-0.824585c0.2871094-0.215332,0.5612793-0.4181519,0.8244629-0.6096802
			c0.262207-0.1903076,0.3944092-0.3100586,0.3944092-0.3584595l1.7209473-1.2902832
			c0,0.0479736,0.1185303-0.0238037,0.3585205-0.215332c0.2386475-0.1903076,0.3583984-0.3104858,0.3583984-0.3584595
			c-1.0300293-2.6676025-2.0715332-5.3352051-3.1240234-8.0027466c1.1540527,1.4682617,2.2823486,2.9505615,3.3740234,4.4535522
			c2.0322266,2.7963867,4.027832,5.6531982,5.9870605,8.5680542c2.1040039,3.1547852,4.1224365,6.34552,6.0583496,9.5716553
			c1.935791,3.2265625,3.739502,6.5370483,5.413208,9.930542c0.8604736,1.8169556,1.6850586,3.6330566,2.4737549,5.4487305
			c0.7886963,1.8161011,1.5168457,3.6567993,2.1867676,5.520874c0.0471191,0.477417,0.1901855,0.932251,0.4301758,1.3624878
			c0.0952148-0.0963745,0.2148438-0.1915283,0.3583984-0.2871094c0.0471191-0.0479736,0.0952148-0.0713501,0.1435547-0.0713501
			c0.0467529,0,0.0952148-0.0250244,0.1431885-0.0717773c0.0471191,0,0.0717773-0.0245972,0.0717773-0.0717773l1.7209473-1.2907104
			l1.7205811-1.2902832c-0.0480957,0,0.0595703-0.0842896,0.3225098-0.2512207
			c0.2624512-0.1677856,0.3942871-0.2753906,0.3942871-0.3225708c-0.0963135-0.239563-0.1789551-0.5020142-0.2507324-0.7886963
			s-0.1556396-0.5499878-0.2507324-0.7886963c-0.1916504-0.6205444-0.3226318-1.2302246-0.3944092-1.828186
			c-0.0717773-0.597168-0.1556396-1.2064209-0.2512207-1.8282471c-0.1915283-1.3858643-0.347168-2.7717285-0.4656982-4.1588135
			c-0.1201172-1.385437-0.227417-2.7713013-0.322998-4.1583862c-0.0817871-1.0612183-0.1442871-2.1133423-0.220459-3.171936
			c0.0019531,0.0055542,0.0031738,0.0115356,0.005127,0.0170898c1.0040283,2.7246094,2.3898926,5.2342529,4.1588135,7.5285645
			c0.8121338,1.1000366,1.7205811,2.1148682,2.7246094,3.0471191c0.9840088,0.9140015,2.0838623,1.6531982,3.2984619,2.222229
			c-4.3377686,5.0487671-16.4936523,20.7092896-2.9239502,22.4679565
			c5.5018311,0.7130127,10.8800049-1.4319458,16.0672607-2.8856812c7.7768555-2.1795654,15.6594238-3.9923096,23.6201172-5.3600464
			c25.3710938-4.3591919,51.8151855-4.0363159,76.0517578,4.1268311c-8.402832-1.0950928-16.9116211-1.3977051-25.4682617-0.8656006
			c-14.7902832,0.9197998-29.2401123,4.1821899-43.5523682,7.8615723c-1.8321533,0.4709473-3.0684814,3.2049561-4.8665771,3.6672363
			c0.6342773-0.1630859,1.2705078-0.3197632,1.9055176-0.4810181c-0.3464355,0.2666626-0.697998,0.4523315-1.0605469,0.4810181
			c8.5921631-0.6791382,17.4616699-0.3026733,25.9909668,1.3967896c-3.0963135,0.7976685-6.152832,1.8085327-9.2399902,3.0008545
			c-1.8328857,0.7078857-3.0568848,2.9683228-4.8665771,3.6672363c0.5172119-0.199707,1.0321045-0.3842773,1.5477295-0.5743408
			c-0.6011963,0.6039429-1.15271,1.0415039-1.5510254,0.9333496c6.8857422,1.869812,12.954834,10.7399292,13.7998047,17.564209
			c-0.119751-0.9671021,4.9960938-2.6217041,4.8665771-3.6672363c-0.7513428-6.0674438-5.6306152-13.7324829-11.5379639-16.6793213
			c4.6491699-1.3553467,9.354248-2.2353516,14.3776855-2.414917c0.5769043-0.0206299,1.3813477-0.8104858,2.1945801-1.6538086
			c0.8907471-0.6712036,1.7813721-1.3423462,2.6719971-2.0134888c-0.1165771,0.0041504-0.2294922,0.0165405-0.3457031,0.0214233
			c0.1245117-0.036499,0.2425537-0.0527344,0.3457031-0.0214233c-7.2625732-2.2029419-14.9317627-3.2843018-22.5845947-3.4911499
			c8.9150391-1.8991699,17.911499-3.3621216,27.0380859-3.9296875c17.7661133-1.1048584,35.3276367,1.3519287,52.1522217,7.1439209
			c0.048584,0.0287476,0.1134033,0.02948,0.1873779,0.0147095c0.5507812-0.0386353,1.3718262-0.881897,2.1966553-1.7585449
			c0.9364014-0.9041748,1.8778076-1.8328857,2.3189697-1.9337769
			C216.3815918,131.9527588,216.4383545,131.949707,216.4880371,131.9668579z M68.2414551,84.3605957l-0.3585205,0.3584595
			c-0.2871094,0.239563-0.5738525,0.5266724-0.8604736,0.8604736c-0.2387695,0.2866821-0.4301758,0.5980225-0.5737305,0.9318848
			c-0.0671387,0.1572266-0.1115723,0.3370361-0.1682129,0.5045166c-0.0999756-1.5036621-0.2108154-3.0154419-0.333252-4.5360107
			c1.6987305-0.4624023,3.467041-0.6270142,5.3054199-0.4854126c-0.670166,0.5266113-1.3387451,1.0394897-2.0076904,1.5415039
			C68.5751953,84.0380249,68.2414551,84.3134766,68.2414551,84.3605957z M71.8978271,91.3867188
			c-0.4302979-1.0987549-0.7650146-2.2584229-1.0036621-3.4769287c-0.2398682-1.2189941-0.2398682-2.4257812,0-3.6209717
			c0.0950928-0.3822021,0.1903076-0.7169189,0.2867432-1.0040283c0.6204834,0,1.1943359,0.0964355,1.7209473,0.2871094
			c0.0466309,0,0.0950928-0.0238037,0.1430664-0.0717773l0.215332-0.215332
			c0.0952148-0.0951538,0.2149658-0.1902466,0.3585205-0.2866821c0.0950928-0.0471191,0.1903076-0.0951538,0.2867432-0.1431274
			c0.0950928-0.0471191,0.1901855-0.1188965,0.2866211-0.215332c0.0952148,0.0484009,0.1547852,0.0717773,0.1794434,0.0717773
			c0.0234375,0,0.0825195,0.0246582,0.1789551,0.0717773c1.6726074,0.6217651,3.1661377,1.4697266,4.4814453,2.545105
			c1.3140869,1.0754395,2.4970703,2.3068848,3.5490723,3.692749c1.5771484,2.1507568,2.7242432,4.4934692,3.4416504,7.026123
			c0.3818359,1.1955566,0.6325684,2.4144897,0.7526855,3.6567993c0.1186523,1.2435303,0.0593262,2.4624634-0.1794434,3.6563721
			c-0.0478516,0.3834839-0.1680908,0.7886963-0.3583984,1.2189331c-1.338623,0.1435547-2.6293945-0.0713501-3.8717041-0.6451416
			c-0.1785889-0.0755005-0.3492432-0.1636963-0.5228271-0.2470703c0.0240479-0.0280762,0.0512695-0.0603027,0.0748291-0.0877686
			c-0.0256348,0.0297852-0.057251,0.0545044-0.0837402,0.0836182c-1.0318604-0.49646-1.9810791-1.1237793-2.8380127-1.8995361
			c-1.0040283-0.9076538-1.9124756-1.864502-2.7246094-2.868103C74.3591309,96.6689453,72.9018555,94.159668,71.8978271,91.3867188z
			"/>
		<path d="M151.9108887,98.0205688c1.1470947,2.2947998,2.2583008,4.5891113,3.3337402,6.8834229
			s2.1386719,4.6119995,3.1906738,6.9547729c0.0952148-0.0964355,0.2149658-0.1915894,0.3585205-0.2871094
			c0.0472412-0.0480347,0.0950928-0.0713501,0.1435547-0.0713501c0.0467529,0,0.0950928-0.0246582,0.1431885-0.0717773
			c0.0471191,0,0.0717773-0.0246582,0.0717773-0.0717773l1.7209473-1.2907104l1.720459-1.2903442l0.7169189-0.5737915
			c-1.3865967-3.1547852-2.8317871-6.2611694-4.3374023-9.3208618c-1.5056152-3.0583496-3.0238037-6.1176147-4.5531006-9.1772461
			c-0.956543-1.8161011-1.9001465-3.6443481-2.8319092-5.4850464c-0.932251-1.8394775-1.5313721-2.9383545-2.4869385-4.8024292
			c-0.0964355,0.0959473-4.8753662,3.6092529-4.8753662,3.6563721c1.3387451,2.6293945,2.3321533,4.4924316,3.6695557,7.097229
			C149.2333984,92.7755127,150.5721436,95.3924561,151.9108887,98.0205688z"/>
		<path d="M148.2408447,76.6917114c-1.00354-2.1511841-1.9197998-4.0958252-3.1633301-6.0796509
			c-1.6021729,0.4568481-3.1922607,1.2032471-5.49646,2.6635742c1.2436523,1.9842529,2.7807617,4.9217529,3.7844238,7.0725098
			c0.0964355-0.0471802,0.2148438-0.1185303,0.3583984-0.2149048c0.0480957-0.0471802,0.0964355-0.0830688,0.1435547-0.107666
			c0.0480957-0.0233765,0.0964355-0.0592651,0.1433105-0.107666l0.0716553-0.0713501l1.7210693-1.2907104l1.720459-1.2907104
			C147.4768066,77.2651367,148.2408447,76.7397461,148.2408447,76.6917114z"/>
	</g>
</g>
</svg>
